<svg width="64" height="64" viewBox="0 0 64 64" fill="none" xmlns="http://www.w3.org/2000/svg">
  <defs>
    <linearGradient id="gradient" x1="0%" y1="0%" x2="100%" y2="100%">
      <stop offset="0%" style="stop-color:#35D07F;stop-opacity:1" />
      <stop offset="50%" style="stop-color:#FBCC5C;stop-opacity:1" />
      <stop offset="100%" style="stop-color:#35D07F;stop-opacity:1" />
    </linearGradient>
  </defs>
  <rect width="64" height="64" rx="12" fill="url(#gradient)"/>
  <path d="M32 16C24.268 16 18 22.268 18 30C18 37.732 24.268 44 32 44C39.732 44 46 37.732 46 30C46 22.268 39.732 16 32 16ZM32 20C37.523 20 40 24.477 40 30C40 35.523 37.523 40 32 40C26.477 40 24 35.523 24 30C24 24.477 26.477 20 32 20ZM28 26C27.448 26 27 26.448 27 27V29C27 29.552 27.448 30 28 30H36C36.552 30 37 29.552 37 29V27C37 26.448 36.552 26 36 26H28ZM28 32C27.448 32 27 32.448 27 33V35C27 35.552 27.448 36 28 36H36C36.552 36 37 35.552 37 35V33C37 32.448 36.552 32 36 32H28Z" fill="white" fill-opacity="0.95"/>
  <circle cx="32" cy="30" r="8" fill="white" fill-opacity="0.2"/>
</svg>

